<svg xmlns="http://www.w3.org/2000/svg" width="1457" height="315" viewBox="0 0 1457 315">
  <defs>
    <linearGradient id="a" x1="15.7%" x2="83.1%" y1="64.9%" y2="64.9%">
      <stop offset="0%" stop-color="#FE9000" stop-opacity=".4"/>
      <stop offset="28.2%" stop-color="#FFDD4A" stop-opacity=".4"/>
      <stop offset="49.9%" stop-color="#699248" stop-opacity=".4"/>
      <stop offset="70.4%" stop-color="#3C6997" stop-opacity=".4"/>
      <stop offset="100%" stop-color="#094074" stop-opacity=".4"/>
    </linearGradient>
  </defs>
  <g fill="none" fill-rule="evenodd">
    <path fill="url(#a)" d="M248.6.8h1033.1a20 20 0 0 1 11.6 3.7L1488 142.7a20 20 0 0 1-11.6 36.3H61A20 20 0 0 1 49 142.9L236.7 4.7a20 20 0 0 1 11.9-4z" transform="translate(-40 135)"/>
    <path fill="#000" fill-opacity=".1" d="M1 294c-.5-7.3 4.1-14.1 13.9-20.3l1427.4.3c9 4.7 13.6 11.1 14 19.4-.5 11.4-6.4 18.2-17.6 20.4L20 314.2c-12.1-2-18.5-8.8-19-20.3z"/>
    <g>
      <g transform="translate(90)">
        <rect width="238" height="264" fill="#FE9000" rx="40"/>
        <path fill="#094074" d="M122.1 201.3a74.3 74.3 0 0 1-29.3-5.5 56.3 56.3 0 0 1-21.3-15.3A68 68 0 0 1 59 157.7a89.5 89.5 0 0 1-4.4-28.5V128a92.9 92.9 0 0 0 .7-7 59.5 59.5 0 0 1 1.3-9.6l.8-3.4a214.6 214.6 0 0 0 2.3-6.7l1.6-3.4c3-6 6.8-11.5 11.3-16 4.6-4.6 9.6-8.1 15-10.6 5.5-2.5 11.1-4.4 16.9-5.5a93 93 0 0 1 18.1-1.7c8 0 15.4.8 21.9 2.4a56 56 0 0 1 16.2 6.4 43.4 43.4 0 0 1 18 21.5c1.5 4 2.6 8.4 3.3 13v8.5c-.2.9-.7 1.6-1.5 2a6 6 0 0 1-2.5 1H132.3v-8.3c-.3-2.2-1.3-4.2-2.9-6a7.3 7.3 0 0 0-5.7-2.8c-2 0-3.8.4-5.3 1.3-1.6.8-2.8 2-3.6 3.3-1 1.4-1.6 3-2.2 5-.5 1.8-1 3.7-1 5.8a189.3 189.3 0 0 0-.4 12.2v13.8a44.8 44.8 0 0 0 1.4 10.6 12 12 0 0 0 3.3 6 8.1 8.1 0 0 0 5.8 2.2 6 6 0 0 0 5.6-3.2c1.2-2 2.2-4.6 3-7.5.8-3 1.7-5 2.8-6a1025.5 1025.5 0 0 1 23.4.2 485.5 485.5 0 0 0 16.2-.2h7.2c2.2 0 3.4 1.4 3.6 4v3.7a49.9 49.9 0 0 1-14.4 31.3c-8.1 8-18.3 13-30.6 15.2v.5c-4.3 1-9.8 1.4-16.4 1.4z"/>
      </g>
      <g transform="translate(347)">
        <rect width="238" height="264" fill="#FFDD4A" rx="40"/>
        <path fill="#3C6997" d="M51.2 131l-.2-2.2c1.2-10.6 2.4-18 3.5-22.1 2.6-9.8 7.1-18 13.7-24.6l2.3-2.3c3.2-3.6 8-6.8 14.3-9.4h3.7a149 149 0 0 1 31.4-7.4c3.7 0 7.5.3 11.5.8 4 .6 8.5 1.5 13.3 2.8a52 52 0 0 1 14.2 6c4.5 2.8 8.2 6 11.2 10v2.7a70 70 0 0 1 16 44.9c0 18.7-4.2 34-12.8 45.7l-4 4.9c-3 3.7-6.7 6.9-11.1 9.5a57.8 57.8 0 0 1-14.2 6.1 101.4 101.4 0 0 1-28.2 3.9c-6.7 0-13-.8-19.1-2.4a59.7 59.7 0 0 1-31.1-20c-4-5-7.4-10.9-9.9-17.9-2.5-7-4-14.7-4.5-23.2V131zm53.7.8c0 22.9 4.4 34.3 13 34.3 2.5 0 4.6-.4 6.4-1.3 1.8-1 3.2-2.4 4.3-4.2a30.3 30.3 0 0 0 4.2-13 141.3 141.3 0 0 0 .8-15.9v-3.5A58 58 0 0 0 131 109c-1-3.1-2.4-5.7-4.3-7.6-2-1.9-4.3-2.9-7.1-2.9-9.8 0-14.7 9.7-14.7 29v4.3z"/>
      </g>
      <g transform="translate(604)">
        <rect width="238" height="264" fill="#699248" rx="40"/>
        <path fill="#5ADBFF" d="M70.3 197.6a5 5 0 0 0-.9-.8c-.4-.4-.9-1-1.4-1.9v-42.2c0-5.5.2-14 .7-25.5.4-11.4.7-20.1.7-26l-.4-8.3c-.3-4.3-.4-7.6-.4-10.1 0-9.2 1-14.8 3.3-16.8 13.5.3 23.6.4 30.3.4h9.4c2.2 0 3.9 0 5 .2l1-.2 1.7.2 2.4.2c1.6.2 3 1.5 4.1 4v1.5a71 71 0 0 1-.2 6.2v4.3c0 .3-.5.9-1.2 1.7-.8.8-1.1 1.5-1.1 2v71.3H167c.5.2 1 .5 1.6 1 .5.5.8 1.3.8 2.3v32.6c-.6 2.6-3.7 4-9.4 4H70.3z"/>
      </g>
      <g transform="translate(861)">
        <rect width="238" height="264" fill="#3C6997" rx="40"/>
        <path fill="#FFDD4A" d="M51.2 131l-.2-2.2c1.2-10.6 2.4-18 3.5-22.1 2.6-9.8 7.1-18 13.7-24.6l2.3-2.3c3.2-3.6 8-6.8 14.3-9.4h3.7a149 149 0 0 1 31.4-7.4c3.7 0 7.5.3 11.5.8 4 .6 8.5 1.5 13.3 2.8a52 52 0 0 1 14.2 6c4.5 2.8 8.2 6 11.2 10v2.7a70 70 0 0 1 16 44.9c0 18.7-4.2 34-12.8 45.7l-4 4.9c-3 3.7-6.7 6.9-11.1 9.5a57.8 57.8 0 0 1-14.2 6.1 101.4 101.4 0 0 1-28.2 3.9c-6.7 0-13-.8-19.1-2.4a59.7 59.7 0 0 1-31.1-20c-4-5-7.4-10.9-9.9-17.9-2.5-7-4-14.7-4.5-23.2V131zm53.7.8c0 22.9 4.4 34.3 13 34.3 2.5 0 4.6-.4 6.4-1.3 1.8-1 3.2-2.4 4.3-4.2a30.3 30.3 0 0 0 4.2-13 141.3 141.3 0 0 0 .8-15.9v-3.5A58 58 0 0 0 131 109c-1-3.1-2.4-5.7-4.3-7.6-2-1.9-4.3-2.9-7.1-2.9-9.8 0-14.7 9.7-14.7 29v4.3z"/>
      </g>
      <g transform="translate(1118)">
        <rect width="238" height="264" fill="#094074" rx="40"/>
        <path fill="#FE9000" d="M55 66.8h18.2c5.6 0 14.5-.1 26.8-.4 12.3-.3 21.5-.4 27.7-.4 5.2 0 10.2.3 14.8.9 4.5.6 9 1.6 13.5 3.2s8.3 3.5 11.5 6c3.1 2.4 5.7 5.5 7.6 9.5 2 4 3 8.5 3 13.6 0 7.1-1.7 13.2-5 18.2-3.4 5-8.5 9.2-15.4 12.7 2.8 1.1 5.1 2.7 7.2 4.6 2 1.8 3.5 3.5 4.6 4.8 1 1.4 2.1 3.7 3.1 7a76.3 76.3 0 0 1 3.5 15.8c.3 2.6 1.4 7.4 3.3 14.3 2 7 3 12.3 3 16 0 2.3-.8 3.5-2.2 3.5a2363.2 2363.2 0 0 0-35.4.2c-1.5-.2-3.9-.2-7-.2h-6.6c-1.3-.4-2.6-2.4-3.8-6a59.3 59.3 0 0 1-2.7-12.4l-2.1-17.4-1-3c-.2-.7-.6-1.4-1.2-2.3a4.4 4.4 0 0 0-2.4-1.8c-1-.3-2.3-.5-3.8-.5h-4.5v41.6l-.1.8-.2.6-.2.5-.4.4-.6.4c-.3 0-.5 0-.8.2H55V66.8zm55.3 51.5l.6.9.7 1 .8.5a27.6 27.6 0 0 0 11.9-2.7c2-1 3.7-2.5 5-4.5 1.2-2 1.9-4.5 1.9-7.3 0-6.7-6.5-10.1-19.6-10.1-1.3.3-2 .8-2 1.5v3.8l.4 8.4.3 8.5z"/>
      </g>
    </g>
  </g>
</svg>
